<?xml version="1.0" encoding="utf-8"?>
<!-- Generator: Adobe Illustrator 24.1.3, SVG Export Plug-In . SVG Version: 6.00 Build 0)  -->
<svg version="1.1" id="Layer_1" xmlns="http://www.w3.org/2000/svg" xmlns:xlink="http://www.w3.org/1999/xlink" x="0px" y="0px"
	 viewBox="0 0 168 46" style="enable-background:new 0 0 168 46;" xml:space="preserve">
<style type="text/css">
	.st0{fill:#919191;}
	.st1{fill:#0EBEE9;}
	.st2{fill:#4680C2;}
	.st3{fill:#414142;}
</style>
<path class="st0" d="M69,41.9h-1.9V27.7H69V41.9z M72.4,41.9V27.7h4c1.2,0,2.3,0.3,3.3,0.8c1,0.5,1.7,1.3,2.2,2.3
	c0.5,1,0.8,2.2,0.8,3.5v0.9c0,1.3-0.3,2.5-0.8,3.5c-0.5,1-1.3,1.8-2.2,2.3c-1,0.5-2.1,0.8-3.3,0.8H72.4z M74.3,29.2v11.1h2
	c1.4,0,2.6-0.4,3.4-1.3c0.8-0.9,1.2-2.2,1.2-3.8v-0.8c0-1.6-0.4-2.9-1.1-3.8c-0.8-0.9-1.8-1.4-3.2-1.4H74.3z M92,31.3l0,1.2
	c0.8-0.9,1.8-1.4,3.1-1.4c1.5,0,2.5,0.6,3,1.7c0.4-0.5,0.8-0.9,1.4-1.2c0.6-0.3,1.2-0.5,2-0.5c2.3,0,3.5,1.2,3.5,3.7v7.1h-1.8v-7
	c0-0.8-0.2-1.3-0.5-1.7c-0.3-0.4-0.9-0.6-1.7-0.6c-0.7,0-1.2,0.2-1.7,0.6c-0.4,0.4-0.7,0.9-0.8,1.6v7h-1.8V35c0-1.5-0.8-2.3-2.3-2.3
	c-1.2,0-2,0.5-2.4,1.5v7.7h-1.8V31.3H92z M114.3,41.9c-0.1-0.2-0.2-0.6-0.3-1.1c-0.8,0.9-1.8,1.3-3,1.3c-1,0-1.9-0.3-2.6-0.9
	c-0.7-0.6-1-1.3-1-2.2c0-1.1,0.4-2,1.3-2.6c0.8-0.6,2-0.9,3.5-0.9h1.8v-0.8c0-0.6-0.2-1.1-0.6-1.5c-0.4-0.4-0.9-0.6-1.7-0.6
	c-0.6,0-1.2,0.2-1.6,0.5s-0.7,0.7-0.7,1.2h-1.8c0-0.5,0.2-1,0.6-1.5c0.4-0.5,0.9-0.9,1.5-1.2c0.6-0.3,1.4-0.4,2.1-0.4
	c1.2,0,2.2,0.3,2.9,0.9c0.7,0.6,1,1.4,1.1,2.5v4.9c0,1,0.1,1.7,0.4,2.3v0.2H114.3z M111.3,40.5c0.6,0,1.1-0.1,1.6-0.4
	c0.5-0.3,0.9-0.7,1.1-1.1v-2.2h-1.4c-2.2,0-3.3,0.6-3.3,1.9c0,0.6,0.2,1,0.6,1.3S110.7,40.5,111.3,40.5z M120.4,31.3l0.1,1.3
	c0.8-1,1.9-1.5,3.2-1.5c2.2,0,3.4,1.3,3.4,3.8v7h-1.8v-7c0-0.8-0.2-1.3-0.5-1.7c-0.3-0.4-0.9-0.5-1.6-0.5c-0.6,0-1.1,0.2-1.5,0.5
	c-0.4,0.3-0.8,0.7-1,1.2v7.5h-1.8V31.3H120.4z M136.2,41.9c-0.1-0.2-0.2-0.6-0.3-1.1c-0.8,0.9-1.8,1.3-3,1.3c-1,0-1.9-0.3-2.6-0.9
	c-0.7-0.6-1-1.3-1-2.2c0-1.1,0.4-2,1.3-2.6c0.8-0.6,2-0.9,3.5-0.9h1.8v-0.8c0-0.6-0.2-1.1-0.6-1.5c-0.4-0.4-0.9-0.6-1.7-0.6
	c-0.6,0-1.2,0.2-1.6,0.5c-0.4,0.3-0.7,0.7-0.7,1.2h-1.8c0-0.5,0.2-1,0.6-1.5c0.4-0.5,0.9-0.9,1.5-1.2c0.6-0.3,1.4-0.4,2.1-0.4
	c1.2,0,2.2,0.3,2.9,0.9c0.7,0.6,1,1.4,1.1,2.5v4.9c0,1,0.1,1.7,0.4,2.3v0.2H136.2z M133.2,40.5c0.6,0,1.1-0.1,1.6-0.4
	c0.5-0.3,0.9-0.7,1.1-1.1v-2.2h-1.4c-2.2,0-3.3,0.6-3.3,1.9c0,0.6,0.2,1,0.6,1.3C132.2,40.4,132.6,40.5,133.2,40.5z M140.2,36.5
	c0-1.6,0.4-3,1.1-3.9c0.8-1,1.8-1.5,3-1.5c1.3,0,2.3,0.5,3,1.4l0.1-1.2h1.7v10.3c0,1.4-0.4,2.4-1.2,3.2c-0.8,0.8-1.9,1.2-3.3,1.2
	c-0.8,0-1.5-0.2-2.2-0.5c-0.7-0.3-1.3-0.8-1.7-1.3l0.9-1.1c0.8,1,1.7,1.4,2.8,1.4c0.9,0,1.6-0.2,2.1-0.7c0.5-0.5,0.7-1.2,0.7-2.1
	v-0.9c-0.7,0.8-1.7,1.3-3,1.3c-1.2,0-2.2-0.5-3-1.5C140.5,39.6,140.2,38.2,140.2,36.5z M142,36.7c0,1.2,0.2,2.1,0.7,2.8
	c0.5,0.7,1.2,1,2.1,1c1.1,0,2-0.5,2.5-1.6v-4.8c-0.6-1-1.4-1.5-2.5-1.5c-0.9,0-1.6,0.3-2.1,1C142.2,34.4,142,35.4,142,36.7z
	 M156.2,42.1c-1.4,0-2.6-0.5-3.5-1.4c-0.9-0.9-1.3-2.2-1.3-3.8v-0.3c0-1,0.2-2,0.6-2.8c0.4-0.8,1-1.5,1.7-1.9
	c0.7-0.5,1.5-0.7,2.3-0.7c1.4,0,2.4,0.5,3.2,1.4c0.8,0.9,1.1,2.2,1.1,3.9v0.8h-7.2c0,1,0.3,1.9,0.9,2.5c0.6,0.6,1.3,1,2.2,1
	c0.6,0,1.2-0.1,1.6-0.4c0.4-0.3,0.8-0.6,1.2-1l1.1,0.9C159.3,41.4,158,42.1,156.2,42.1z M156,32.6c-0.7,0-1.3,0.3-1.8,0.8
	c-0.5,0.5-0.8,1.3-0.9,2.2h5.3v-0.1c-0.1-0.9-0.3-1.6-0.7-2.1C157.3,32.9,156.7,32.6,156,32.6z M167.5,32.9c-0.3,0-0.6-0.1-0.9-0.1
	c-1.2,0-2,0.5-2.4,1.5v7.5h-1.8V31.3h1.8l0,1.2c0.6-0.9,1.4-1.4,2.5-1.4c0.4,0,0.6,0,0.8,0.1V32.9z"/>
<path class="st0" d="M32.4,41.6V25.3l3.3-0.4l0.5,2.5c1.1-1.8,2.7-2.6,4.8-2.6c0.4,0,0.8,0,1.1,0.1L42,28.3
	c-0.4-0.1-0.8-0.1-1.3-0.1c-1.5,0-2.6,0.4-3.3,1.2c-0.7,0.8-1.1,1.9-1.1,3.2v9H32.4z"/>
<path class="st0" d="M48.5,19.1v3.2h-4v-3L48.5,19.1z"/>
<path class="st0" d="M48.5,25h-4v16.7h4V25z"/>
<path class="st0" d="M53.6,41.6v-14h-2.7v-2.2l2.7-0.4V24c0-1,0.1-1.9,0.3-2.6c0.2-0.7,0.5-1.3,0.9-1.8c0.4-0.5,1-0.9,1.7-1.1
	c0.7-0.2,1.6-0.4,2.6-0.4c1,0,2,0.1,3.1,0.3l-0.4,3c-0.8-0.1-1.5-0.2-2-0.2c-0.9,0-1.4,0.2-1.8,0.6c-0.4,0.4-0.5,1.1-0.5,2V25H61
	l0.2,2.7h-3.7v14H53.6z"/>
<g>
	<path class="st1" d="M10.9,2.1L10.9,2.1c2.6,2.3,4,4.6,4.1,6.8c0,2-1.1,4-3.3,5.8V9.3c0-0.4-0.3-0.8-0.8-0.8L10.9,2.1z"/>
	<path class="st2" d="M10.9,8.5c-0.4,0-0.8,0.3-0.8,0.8v5.4c-2.2-1.9-3.3-3.8-3.3-5.8c0.1-2.2,1.5-4.5,4.1-6.8L10.9,8.5z"/>
	<path class="st2" d="M25.2,21.3c-0.1-0.2-0.3-0.3-0.5-0.3c-0.2-0.1-0.4,0-0.6,0.1l-0.7,0.4c0.8-2.3,3.1-1.7,4-1.5L25.2,21.3z"/>
	<path class="st1" d="M27.5,20c-0.3,0.9-0.8,3.1-3.3,2.7l0.7-0.4c0.2-0.1,0.3-0.2,0.4-0.5c0.1-0.2,0-0.4-0.1-0.5L27.5,20z"/>
	<path class="st3" d="M24.2,22.7l0.7-0.4c0.2-0.1,0.3-0.2,0.4-0.5c0.1-0.4-0.2-0.8-0.5-0.9c-0.2-0.1-0.4,0-0.6,0.1l-0.7,0.4
		c0.8-2.3,3.1-1.7,4-1.5C27.2,20.9,26.7,23.1,24.2,22.7z M19.1,25.9c-0.6,0-1.1-0.5-1.1-1.1c0-0.6,0.5-1.1,1.1-1.1
		c0.6,0,1.1,0.5,1.1,1.1C20.3,25.4,19.8,25.9,19.1,25.9z M20.3,34.1c0,0.6-0.5,1.1-1.1,1.1c-0.6,0-1.1-0.5-1.1-1.1
		c0-0.6,0.5-1.1,1.1-1.1C19.7,33,20.3,33.5,20.3,34.1z M13.4,30c0-0.2,0.1-0.3,0.1-0.5c0-0.2,0-0.4-0.1-0.5l4-2.3
		c0.3,0.2,0.6,0.4,1,0.6v4.6c-0.3,0.1-0.6,0.3-0.9,0.5L13.4,30z M16.6,34.6l-4.1,2.3c-0.3-0.2-0.6-0.4-0.9-0.5v-4.6
		c0.3-0.1,0.7-0.3,0.9-0.5l4.1,2.3c0,0.2-0.1,0.4-0.1,0.6C16.6,34.3,16.6,34.5,16.6,34.6z M10.9,39.9c-0.6,0-1.1-0.5-1.1-1.1
		c0-0.6,0.5-1.1,1.1-1.1c0.6,0,1.1,0.5,1.1,1.1C12,39.4,11.5,39.9,10.9,39.9z M5.2,34.6c0-0.2,0-0.3,0-0.5c0-0.2,0-0.4-0.1-0.6
		l4.1-2.3c0.3,0.2,0.6,0.4,0.9,0.5v4.6c-0.3,0.1-0.7,0.3-0.9,0.5L5.2,34.6z M4.3,32.3c-0.3-0.2-0.6-0.4-0.9-0.5v-4.6
		c0.4-0.1,0.7-0.3,0.9-0.6l4,2.3c0,0.2-0.1,0.3-0.1,0.5c0,0.2,0,0.4,0.1,0.5L4.3,32.3z M2.7,35.3c-0.6,0-1.1-0.5-1.1-1.1
		c0-0.6,0.5-1.1,1.1-1.1c0.6,0,1.1,0.5,1.1,1.1C3.8,34.8,3.3,35.3,2.7,35.3z M1.6,24.8c0-0.6,0.5-1.1,1.1-1.1c0.6,0,1.1,0.5,1.1,1.1
		c0,0.6-0.5,1.1-1.1,1.1C2.1,25.9,1.6,25.4,1.6,24.8z M9.2,21.9c0.3,0.2,0.6,0.4,0.9,0.5v4.6c-0.4,0.1-0.7,0.3-0.9,0.5l-4-2.3
		c0-0.2,0-0.3,0-0.5c0-0.2,0-0.4-0.1-0.6L9.2,21.9z M10.9,19c0.6,0,1.1,0.5,1.1,1.1c0,0.6-0.5,1.1-1.1,1.1c-0.6,0-1.1-0.5-1.1-1.1
		C9.8,19.5,10.3,19,10.9,19z M6.8,8.8c0.1-2.2,1.5-4.5,4.1-6.8h0c2.6,2.3,4,4.6,4.1,6.8c0,2-1.1,4-3.3,5.8V9.3
		c0-0.4-0.3-0.8-0.8-0.8c-0.4,0-0.8,0.3-0.8,0.8v5.4C7.9,12.8,6.8,10.9,6.8,8.8z M12,29.4c0,0.6-0.5,1.1-1.1,1.1
		c-0.6,0-1.1-0.5-1.1-1.1c0-0.6,0.5-1.1,1.1-1.1C11.5,28.3,12,28.8,12,29.4z M16.7,24.3c0,0.2-0.1,0.4-0.1,0.6c0,0.2,0,0.3,0,0.5
		l-4,2.3c-0.3-0.2-0.6-0.4-0.9-0.5v-4.6c0.3-0.1,0.6-0.3,0.9-0.5L16.7,24.3z M28.6,18.7c0,0-2.8-1.1-4.7,0c-1.1,0.6-1.9,1.8-2.1,3.7
		L20.8,23c-0.4-0.4-1-0.6-1.7-0.6c-0.6,0-1.2,0.2-1.7,0.6h0l-4.1-2.3c0-0.2,0.1-0.4,0.1-0.6c0-1.1-0.7-2-1.8-2.4v-1.1l0.4-0.3h0
		c3.1-2.4,4.6-4.9,4.5-7.6c0-2.7-1.7-5.5-5.1-8.4c-0.1-0.1-0.3-0.2-0.4-0.2h-0.1c-0.2,0-0.3,0.1-0.4,0.2C7,3.3,5.3,6.1,5.3,8.8
		c-0.1,2.6,1.4,5.2,4.5,7.6l0.4,0.3v1.1c-1,0.3-1.8,1.3-1.8,2.4c0,0.2,0,0.4,0.1,0.6L4.4,23c-0.4-0.4-1-0.6-1.7-0.6
		c-1.4,0-2.5,1.1-2.5,2.5c0,1.1,0.7,2,1.8,2.4v4.6c-1,0.3-1.8,1.3-1.8,2.4c0,1.4,1.1,2.5,2.5,2.5c0.7,0,1.3-0.3,1.7-0.7l4,2.3
		c0,0.2-0.1,0.4-0.1,0.5c0,1.4,1.1,2.5,2.5,2.5c1.4,0,2.5-1.1,2.5-2.5c0-0.2,0-0.4-0.1-0.5l4-2.3c0.5,0.4,1.1,0.7,1.7,0.7
		c1.4,0,2.5-1.1,2.5-2.5c0-1.1-0.7-2-1.8-2.4v-4.6c1-0.3,1.8-1.3,1.8-2.4c0-0.2,0-0.4-0.1-0.6l0.9-0.5c1.9,0.8,3.4,0.7,4.4,0
		c1.8-1.1,2.3-4.1,2.3-4.1C29.2,19.3,28.9,18.8,28.6,18.7z"/>
</g>
</svg>
