<?xml version="1.0" encoding="utf-8"?>
<!-- Generator: Adobe Illustrator 24.1.3, SVG Export Plug-In . SVG Version: 6.00 Build 0)  -->
<svg version="1.1" id="Layer_1" xmlns="http://www.w3.org/2000/svg" xmlns:xlink="http://www.w3.org/1999/xlink" x="0px" y="0px"
	 viewBox="0 0 20 20" style="enable-background:new 0 0 20 20;" xml:space="preserve" height="18px">
<g>
	<path d="M15.5,9.6c0.3,0.9,0,1.3-0.9,1.4c0,0.3,0,0.7-0.3,1c-0.3,0.3-0.6,0.2-1,0.2c0,0.1-0.1,0.2-0.1,0.3C12.9,13,12.6,13.2,12,13
		c-0.1,0-0.2-0.1-0.3-0.1c-0.1,0-0.1,0.2-0.2,0.3c-0.3,0.4-0.8,0.5-1.2,0.2c-0.1-0.1-0.2-0.1-0.3-0.2c-0.3,0.2-0.5,0.5-0.9,0.4
		c-0.4-0.1-0.6-0.3-0.8-0.6c-1,0.3-1.1,0.3-1.6-0.7c-1.1,0-1.2-0.1-1.3-1.1c-0.3,0-0.7-0.1-0.9-0.4c-0.2-0.3-0.1-0.7,0-1
		C4.4,9.5,4.2,9.4,4,9.3c-0.3-0.2-0.4-0.7-0.2-1C3.9,8.2,4,8.1,4,8c0-0.1-0.1-0.2-0.2-0.3C3.6,7.4,3.4,7.1,3.6,6.8
		c0.1-0.2,0.2-0.3,0.3-0.4C4,6.3,4.1,6.2,4,6.1C3.9,6,3.9,5.9,3.8,5.9C3.7,5.4,3.8,5,4.2,4.8c0.1-0.1,0.2-0.1,0.4-0.2
		c-0.1-0.3-0.2-0.7,0-1c0.2-0.3,0.6-0.4,0.9-0.4c0-0.3,0-0.7,0.3-1C6,1.9,6.4,2,6.7,2c0.1-0.2,0.1-0.3,0.2-0.4
		c0.2-0.4,0.5-0.5,1-0.4c0.1,0,0.2,0,0.2,0.1c0.2,0.1,0.3,0,0.4-0.1C8.6,1,8.7,0.9,8.8,0.8c0.3-0.2,0.6-0.1,0.9,0.1
		C9.8,0.9,9.9,1,10,1.1c0.1-0.1,0.3-0.2,0.4-0.3c0.4-0.3,0.8-0.1,1.1,0.2c0.1,0.1,0.1,0.2,0.2,0.3c0.1,0,0.2-0.1,0.3-0.1
		c0.5-0.2,0.9,0,1.1,0.5c0,0.1,0.1,0.2,0.1,0.3c0.3,0,0.7-0.1,1,0.2c0.3,0.3,0.3,0.6,0.3,1c0.3,0.1,0.7,0.1,0.9,0.4
		c0.2,0.3,0.1,0.7,0,1c0.1,0.1,0.2,0.1,0.3,0.2c0.5,0.3,0.6,0.7,0.3,1.2C16.1,6,16,6.1,16,6.2c0,0.1,0.1,0.2,0.2,0.2
		c0.4,0.4,0.4,0.8,0,1.2C16.1,7.8,16,7.9,16,8c0,0.1,0.1,0.2,0.1,0.3c0.3,0.5,0.1,0.9-0.4,1.2C15.7,9.5,15.6,9.5,15.5,9.6z M6.5,3.1
		c0,0.3,0,0.6-0.2,0.8C6.1,4.1,5.8,4.2,5.5,4.2c0.2,0.7,0,1.1-0.6,1.4c0.4,0.6,0.3,1.1-0.2,1.5C5.2,7.5,5.3,8,4.9,8.6
		C5.6,8.9,5.7,9.3,5.5,10c0.7,0.1,1,0.5,1,1.1C7.2,11,7.6,11.3,7.8,12c0.6-0.3,1.1-0.2,1.5,0.4c0.5-0.5,1-0.5,1.5,0
		c0.3-0.6,0.8-0.7,1.5-0.4c0.2-0.7,0.6-1,1.3-0.8c0-0.3,0-0.6,0.2-0.8c0.2-0.2,0.5-0.3,0.8-0.3c-0.2-0.7,0-1.1,0.6-1.4
		c-0.4-0.6-0.3-1.1,0.2-1.5c-0.2-0.2-0.4-0.4-0.5-0.7c0-0.3,0.1-0.5,0.2-0.8c-0.7-0.3-0.8-0.7-0.6-1.4c-0.7-0.1-1-0.4-1-1.2
		c-0.7,0.1-1.1-0.1-1.3-0.8c-0.9,0.3-0.9,0.2-1.5-0.4c-0.5,0.5-1,0.5-1.5,0C8.9,2.4,8.4,2.6,7.8,2.2C7.5,3,7.3,3.1,6.5,3.1z"/>
	<path d="M5.6,13.1c0.2,0,0.3,0.1,0.5,0.1c0.1,0,0.1,0.1,0.2,0.2c0.3,0.2,0.2,0.4,0.1,0.7c-0.4,0.7-0.7,1.5-1,2.2c0,0,0,0,0,0.1
		c0.3-0.2,0.5-0.3,0.7-0.5c0.1-0.1,0.2-0.2,0.3-0.2c0.4-0.2,0.8,0,0.8,0.4c0,0.4,0.1,0.7,0.1,1.1c0,0,0,0.1,0,0.2
		c0.5-1,0.9-1.9,1.3-2.9c0.4,0.2,0.7,0.2,1.1,0.1c-0.2,0.4-0.4,0.9-0.6,1.3c-0.5,1-0.9,2-1.4,2.9c-0.1,0.1-0.1,0.2-0.2,0.3
		c-0.3,0.4-0.9,0.4-1.1-0.1c-0.1-0.1-0.1-0.3-0.1-0.4c-0.1-0.5-0.1-1-0.2-1.5c-0.2,0.1-0.4,0.2-0.6,0.4c-0.3,0.2-0.5,0.4-0.8,0.5
		c-0.3,0.2-0.6,0.2-0.8,0c-0.2-0.2-0.3-0.5-0.2-0.8c0.1-0.3,0.3-0.7,0.4-1C4.6,15.2,5.1,14.2,5.6,13.1C5.5,13.2,5.5,13.1,5.6,13.1z"
		/>
	<path d="M14.4,13.1c0.2,0.3,0.3,0.7,0.5,1c0.4,0.9,0.9,1.8,1.3,2.8c0.1,0.2,0.1,0.4,0.1,0.6c0,0.5-0.6,0.7-1.1,0.4
		c-0.4-0.3-0.8-0.6-1.2-0.8c0,0-0.1,0-0.1-0.1c0,0.4-0.1,0.8-0.1,1.2c0,0.2,0,0.4-0.1,0.5c-0.1,0.4-0.4,0.7-0.8,0.6
		c-0.3,0-0.4-0.2-0.5-0.4c-0.2-0.4-0.4-0.9-0.6-1.4c-0.4-1-0.9-1.9-1.3-2.9c0,0,0-0.1,0-0.1c0.2,0,0.4,0,0.6,0
		c0.2,0,0.4-0.1,0.5-0.1c0.4,0.9,0.9,1.9,1.3,2.9c0-0.4,0.1-0.8,0.1-1.2c0-0.5,0.5-0.7,0.9-0.4c0.3,0.2,0.6,0.4,1,0.6
		c-0.2-0.3-0.3-0.7-0.5-1c-0.2-0.5-0.4-1-0.7-1.5c0-0.1-0.1-0.2,0-0.2c0,0,0,0,0,0C13.8,13.2,14.1,13.1,14.4,13.1z"/>
	<path d="M12.4,4.7c1.3,1.3,1.3,3.4,0,4.8c-1.3,1.3-3.4,1.3-4.8,0C6.3,8.2,6.3,6,7.6,4.7C8.9,3.4,11.1,3.4,12.4,4.7z M11.7,5.5
		c-0.9-0.9-2.4-0.9-3.3,0c-0.9,0.9-1,2.4-0.1,3.3c0.9,0.9,2.4,0.9,3.3,0.1C12.6,7.9,12.6,6.4,11.7,5.5z"/>
</g>
</svg>
